<svg width="42" height="38" viewBox="0 0 42 38" fill="none" xmlns="http://www.w3.org/2000/svg">
<path d="M2 36C0.895432 36 0 35.1046 0 34V2C0 0.895431 0.895431 0 2 0H15.0377C17.6233 0 19.8858 0.486328 21.825 1.45898C23.7643 2.43164 25.2726 3.83203 26.3499 5.66016C27.4273 7.48828 27.966 9.67969 27.966 12.2344C27.966 14.8125 27.4103 16.9863 26.2989 18.7559C25.1989 20.5254 23.6509 21.8613 21.6549 22.7637C19.6703 23.666 17.3512 24.1172 14.6974 24.1172H7.71567C6.6111 24.1172 5.71567 23.2218 5.71567 22.1172V18.5234C5.71567 17.4189 6.61111 16.5234 7.71567 16.5234H12.7922C13.9036 16.5234 14.8505 16.3828 15.6331 16.1016C16.4269 15.8086 17.0336 15.3457 17.4532 14.7129C17.8842 14.0801 18.0996 13.2539 18.0996 12.2344C18.0996 11.2031 17.8842 10.3652 17.4532 9.7207C17.0336 9.06445 16.4269 8.58398 15.6331 8.2793C14.8505 7.96289 13.9036 7.80469 12.7922 7.80469H11.4581C10.3535 7.80469 9.45808 8.70012 9.45808 9.80469V34C9.45808 35.1046 8.56265 36 7.45808 36H2ZM19.2065 19.4766C19.9486 19.4766 20.6297 19.8875 20.9758 20.544L27.5769 33.0674C28.279 34.3993 27.3132 36 25.8077 36H20.068C19.3189 36 18.6326 35.5814 18.2898 34.9154L11.8433 22.3919C11.1582 21.0609 12.1245 19.4766 13.6216 19.4766H19.2065Z" fill="url(#paint0_linear_252_77)"/>
<defs>
<linearGradient id="paint0_linear_252_77" x1="14.9492" y1="16.9661" x2="30.9788" y2="42.806" gradientUnits="userSpaceOnUse">
<stop/>
<stop offset="1" stop-color="#D8C200"/>
</linearGradient>
</defs>
</svg>
