<svg width="45" height="39" viewBox="0 0 45 39" fill="none" xmlns="http://www.w3.org/2000/svg">
<path d="M5 37C3.89543 37 3 36.1046 3 35V3C3 1.89543 3.89543 1 5 1H18.0377C20.6233 1 22.8858 1.48633 24.825 2.45898C26.7643 3.43164 28.2726 4.83203 29.3499 6.66016C30.4273 8.48828 30.966 10.6797 30.966 13.2344C30.966 15.8125 30.4103 17.9863 29.2989 19.7559C28.1989 21.5254 26.6509 22.8613 24.6549 23.7637C22.6703 24.666 20.3512 25.1172 17.6974 25.1172H10.7157C9.6111 25.1172 8.71567 24.2218 8.71567 23.1172V19.5234C8.71567 18.4189 9.61111 17.5234 10.7157 17.5234H15.7922C16.9036 17.5234 17.8505 17.3828 18.6331 17.1016C19.4269 16.8086 20.0336 16.3457 20.4532 15.7129C20.8842 15.0801 21.0996 14.2539 21.0996 13.2344C21.0996 12.2031 20.8842 11.3652 20.4532 10.7207C20.0336 10.0645 19.4269 9.58398 18.6331 9.2793C17.8505 8.96289 16.9036 8.80469 15.7922 8.80469H14.4581C13.3535 8.80469 12.4581 9.70012 12.4581 10.8047V35C12.4581 36.1046 11.5627 37 10.4581 37H5ZM22.2065 20.4766C22.9486 20.4766 23.6297 20.8875 23.9758 21.544L30.5769 34.0674C31.279 35.3993 30.3132 37 28.8077 37H23.068C22.3189 37 21.6326 36.5814 21.2898 35.9154L14.8433 23.3919C14.1582 22.0609 15.1245 20.4766 16.6216 20.4766H22.2065Z" fill="black"/>
<path d="M2 34C0.895432 34 0 33.1046 0 32V2C0 0.89543 0.895431 0 2 0H14.3216C16.7841 0 18.9388 0.45931 20.7857 1.37793C22.6326 2.29655 24.0691 3.61914 25.0952 5.3457C26.1212 7.07227 26.6343 9.14193 26.6343 11.5547C26.6343 13.9896 26.105 16.0426 25.0466 17.7139C23.9989 19.3851 22.5246 20.6468 20.6237 21.499C18.7336 22.3512 16.5249 22.7773 13.9976 22.7773H7.4435C6.33893 22.7773 5.4435 21.8819 5.4435 20.7773V17.6055C5.4435 16.5009 6.33893 15.6055 7.4435 15.6055H12.1831C13.2415 15.6055 14.1434 15.4727 14.8886 15.207C15.6447 14.9303 16.2225 14.4932 16.6221 13.8955C17.0325 13.2979 17.2378 12.5176 17.2378 11.5547C17.2378 10.5807 17.0325 9.78939 16.6221 9.18067C16.2225 8.56087 15.6447 8.1071 14.8886 7.81933C14.1434 7.52051 13.2415 7.37109 12.1831 7.37109H11.0077C9.90313 7.37109 9.0077 8.26652 9.0077 9.37109V32C9.0077 33.1046 8.11227 34 7.0077 34H2ZM18.2392 18.3945C18.9788 18.3945 19.658 18.8027 20.0052 19.4558L26.1739 31.0613C26.882 32.3934 25.9165 34 24.4079 34H19.1658C18.4192 34 17.7347 33.5841 17.3907 32.9214L11.3666 21.3159C10.6755 19.9846 11.6417 18.3945 13.1417 18.3945H18.2392Z" fill="#F8F8F8"/>
</svg>
