<svg width="12" height="16" viewBox="0 0 12 16" fill="none" xmlns="http://www.w3.org/2000/svg">
<path fill-rule="evenodd" clip-rule="evenodd" d="M1.26912 5.69225C1.1 5.46378 1 5.18107 1 4.875C1 4.11561 1.61561 3.5 2.375 3.5C2.64743 3.5 2.90135 3.57923 3.11498 3.7159C2.34423 4.20596 1.70675 4.88693 1.26912 5.69225ZM10.37 8.255C10.37 10.6712 8.41125 12.63 5.995 12.63C3.57875 12.63 1.62 10.6712 1.62 8.255C1.62 5.83875 3.57875 3.88 5.995 3.88C8.41125 3.88 10.37 5.83875 10.37 8.255ZM6.38 8.875H4.25V8.12H5.63V5.5H6.38V8.875ZM9.625 3.5C9.35046 3.5 9.0947 3.58046 8.88004 3.71909C9.65102 4.21049 10.2883 4.89306 10.7251 5.70001C10.8977 5.4702 11 5.18455 11 4.875C11 4.11561 10.3844 3.5 9.625 3.5Z" fill="#020202"/>
</svg>
