<svg width="16" height="16" viewBox="0 0 16 16" fill="none" xmlns="http://www.w3.org/2000/svg">
<path fill-rule="evenodd" clip-rule="evenodd" d="M13.9396 7.65566C12.3337 6.12886 10.2025 5.27742 7.98661 5.27733C5.7705 5.27732 3.6391 6.12876 2.03295 7.65566C1.91209 7.77372 1.71864 7.77223 1.59961 7.65233L0.443279 6.48566C0.383014 6.42489 0.34945 6.34262 0.350013 6.25704C0.350576 6.17146 0.38522 6.08963 0.446279 6.02966C4.66138 1.99011 11.3112 1.99011 15.5263 6.02966C15.5873 6.08967 15.6219 6.17153 15.6224 6.25711C15.6229 6.34269 15.5893 6.42494 15.5289 6.48566L14.3729 7.65233C14.2538 7.77205 14.0605 7.77354 13.9396 7.65566ZM7.98666 9.07299C9.20415 9.07292 10.3782 9.52545 11.2807 10.3427C11.4027 10.4586 11.595 10.4561 11.714 10.337L12.8687 9.17032C12.9295 9.10913 12.9632 9.02611 12.9623 8.93985C12.9615 8.85358 12.926 8.77127 12.864 8.71132C10.1158 6.15494 5.85986 6.15494 3.11166 8.71132C3.04958 8.77127 3.01417 8.85362 3.01335 8.93992C3.01254 9.02621 3.04639 9.10922 3.10733 9.17032L4.26166 10.337C4.38065 10.4561 4.57293 10.4586 4.69499 10.3427C5.59687 9.52599 6.76998 9.07349 7.98666 9.07299ZM10.2056 11.8573C10.2674 11.7967 10.3014 11.7133 10.2996 11.6268C10.2978 11.5403 10.2605 11.4584 10.1963 11.4003C8.92071 10.3214 7.05252 10.3214 5.77695 11.4003C5.71272 11.4583 5.67528 11.5402 5.67345 11.6267C5.67162 11.7132 5.70557 11.7967 5.76728 11.8573L7.76495 13.873C7.8235 13.9322 7.90332 13.9656 7.98661 13.9656C8.0699 13.9656 8.14973 13.9322 8.20828 13.873L10.2056 11.8573Z" fill="#020202"/>
</svg>
