<svg width="20" height="16" viewBox="0 0 20 16" fill="none" xmlns="http://www.w3.org/2000/svg">
<path fill-rule="evenodd" clip-rule="evenodd" d="M17 3H16C15.4477 3 15 3.44772 15 4V12.6667C15 13.219 15.4477 13.6667 16 13.6667H17C17.5523 13.6667 18 13.219 18 12.6667V4C18 3.44772 17.5523 3 17 3ZM11.3333 5.33333H12.3333C12.8856 5.33333 13.3333 5.78105 13.3333 6.33333V12.6667C13.3333 13.219 12.8856 13.6667 12.3333 13.6667H11.3333C10.781 13.6667 10.3333 13.219 10.3333 12.6667V6.33333C10.3333 5.78105 10.781 5.33333 11.3333 5.33333ZM7.66667 7.66667H6.66667C6.11438 7.66667 5.66667 8.11438 5.66667 8.66667V12.6667C5.66667 13.219 6.11438 13.6667 6.66667 13.6667H7.66667C8.21895 13.6667 8.66667 13.219 8.66667 12.6667V8.66667C8.66667 8.11438 8.21895 7.66667 7.66667 7.66667ZM3 9.66667H2C1.44772 9.66667 1 10.1144 1 10.6667V12.6667C1 13.219 1.44772 13.6667 2 13.6667H3C3.55228 13.6667 4 13.219 4 12.6667V10.6667C4 10.1144 3.55228 9.66667 3 9.66667Z" fill="#020202"/>
</svg>
