<svg width="30" height="30" viewBox="0 0 30 30" fill="none" xmlns="http://www.w3.org/2000/svg">
<path d="M15 0.9375C12.2187 0.9375 9.49987 1.76225 7.1873 3.30746C4.87473 4.85267 3.07231 7.04893 2.00795 9.61851C0.943593 12.1881 0.665109 15.0156 1.20771 17.7435C1.75032 20.4713 3.08964 22.977 5.05632 24.9437C7.02299 26.9104 9.52869 28.2497 12.2565 28.7923C14.9844 29.3349 17.8119 29.0564 20.3815 27.9921C22.9511 26.9277 25.1473 25.1253 26.6925 22.8127C28.2378 20.5001 29.0625 17.7813 29.0625 15C29.0551 11.2727 27.5711 7.70014 24.9355 5.06452C22.2999 2.4289 18.7273 0.944932 15 0.9375V0.9375ZM15 27.9375C12.4412 27.9375 9.93988 27.1787 7.81232 25.7571C5.68476 24.3355 4.02652 22.315 3.04731 19.951C2.06811 17.5869 1.8119 14.9856 2.3111 12.476C2.81029 9.96639 4.04247 7.66115 5.85181 5.85181C7.66115 4.04246 9.9664 2.81029 12.476 2.31109C14.9857 1.81189 17.587 2.0681 19.951 3.04731C22.315 4.02652 24.3356 5.68475 25.7571 7.81231C27.1787 9.93987 27.9375 12.4412 27.9375 15C27.9338 18.4301 26.5695 21.7186 24.1441 24.1441C21.7186 26.5695 18.4301 27.9338 15 27.9375V27.9375ZM8.81251 12.1875C8.81251 11.965 8.87849 11.7475 9.0021 11.5625C9.12572 11.3775 9.30142 11.2333 9.50699 11.1481C9.71255 11.063 9.93875 11.0407 10.157 11.0841C10.3752 11.1275 10.5757 11.2347 10.733 11.392C10.8903 11.5493 10.9975 11.7498 11.0409 11.968C11.0843 12.1863 11.062 12.4125 10.9769 12.618C10.8917 12.8236 10.7475 12.9993 10.5625 13.1229C10.3775 13.2465 10.16 13.3125 9.93751 13.3125C9.63914 13.3125 9.35299 13.194 9.14201 12.983C8.93103 12.772 8.81251 12.4859 8.81251 12.1875ZM18.9375 12.1875C18.9375 11.965 19.0035 11.7475 19.1271 11.5625C19.2507 11.3775 19.4264 11.2333 19.632 11.1481C19.8376 11.063 20.0638 11.0407 20.282 11.0841C20.5002 11.1275 20.7007 11.2347 20.858 11.392C21.0153 11.5493 21.1225 11.7498 21.1659 11.968C21.2093 12.1863 21.187 12.4125 21.1019 12.618C21.0167 12.8236 20.8725 12.9993 20.6875 13.1229C20.5025 13.2465 20.285 13.3125 20.0625 13.3125C19.7641 13.3125 19.478 13.194 19.267 12.983C19.056 12.772 18.9375 12.4859 18.9375 12.1875ZM21.3281 18.6562C20.6886 19.7693 19.7668 20.6939 18.6557 21.3369C17.5447 21.9799 16.2837 22.3185 15 22.3185C13.7163 22.3185 12.4553 21.9799 11.3443 21.3369C10.2332 20.6939 9.31144 19.7693 8.67188 18.6562C8.62786 18.5924 8.59752 18.5201 8.58277 18.4439C8.56803 18.3678 8.56919 18.2894 8.58619 18.2137C8.60319 18.138 8.63566 18.0667 8.68156 18.0042C8.72746 17.9416 8.7858 17.8893 8.8529 17.8504C8.92001 17.8115 8.99444 17.7869 9.07151 17.7781C9.14859 17.7694 9.22664 17.7766 9.30076 17.7995C9.37489 17.8223 9.44348 17.8603 9.50224 17.9109C9.561 17.9616 9.60865 18.0238 9.64219 18.0938C10.1854 19.034 10.9664 19.8148 11.9069 20.3576C12.8474 20.9005 13.9141 21.1863 15 21.1863C16.0859 21.1863 17.1527 20.9005 18.0931 20.3576C19.0336 19.8148 19.8147 19.034 20.3578 18.0938C20.3914 18.0238 20.439 17.9616 20.4978 17.9109C20.5565 17.8603 20.6251 17.8223 20.6992 17.7995C20.7734 17.7766 20.8514 17.7694 20.9285 17.7781C21.0056 17.7869 21.08 17.8115 21.1471 17.8504C21.2142 17.8893 21.2726 17.9416 21.3185 18.0042C21.3644 18.0667 21.3968 18.138 21.4138 18.2137C21.4308 18.2894 21.432 18.3678 21.4172 18.4439C21.4025 18.5201 21.3722 18.5924 21.3281 18.6562V18.6562Z" fill="black" stroke="black" stroke-width="1.6"/>
</svg>
